<svg width="30" height="32" viewBox="0 0 30 32" fill="none" xmlns="http://www.w3.org/2000/svg">
<path d="M2.63391 29.0523L2.67069 28.8949C2.71547 28.7031 2.75966 28.5114 2.80389 28.3195L2.80396 28.3191C2.84813 28.1275 2.89234 27.9356 2.93715 27.7438C3.31714 26.09 3.73507 24.4114 4.20982 22.7708L4.26382 22.5842L4.38432 22.7366C5.65034 24.3376 7.02862 25.8468 8.54732 27.2072L8.67174 27.3187L8.51474 27.3757C8.28413 27.4595 8.05472 27.5421 7.82461 27.608L7.82465 27.608L7.79661 27.512L7.82411 27.6081L6.49455 27.9965L2.63391 29.0523ZM2.63391 29.0523L2.79124 29.0149M2.63391 29.0523L2.79124 29.0149M2.79124 29.0149C4.02295 28.7216 5.23767 28.3658 6.4944 27.9966L2.79124 29.0149ZM10.4104 26.0892L10.3428 25.9861C10.3316 25.969 10.3211 25.9526 10.311 25.9369C10.2657 25.8661 10.2289 25.8086 10.1737 25.759C10.1736 25.7589 10.1734 25.7587 10.1733 25.7586L10.2401 25.6842L10.4104 26.0892ZM10.4104 26.0892L10.4973 26.0018M10.4104 26.0892L10.4973 26.0018M10.4973 26.0018C14.4513 22.0286 18.3485 17.9357 22.0072 14.011L22.0725 13.941M10.4973 26.0018L22.0725 13.941M22.0725 13.941L22.0053 13.8727M22.0725 13.941L22.0053 13.8727M22.0053 13.8727C21.9875 13.8545 21.9672 13.8444 21.9605 13.8411L21.9596 13.8406L22.0053 13.8727ZM28.9856 8.29833L28.9858 8.29868C29.3254 8.72539 29.3015 9.33936 28.934 9.73728L28.9339 9.73738C23.4974 15.6404 17.1611 22.468 10.738 28.8539L10.7378 28.8542C10.5915 29.0007 10.4062 29.0995 10.205 29.1436C9.92373 29.2034 9.64252 29.304 9.36733 29.4023C9.32543 29.4173 9.28367 29.4322 9.24207 29.447L9.24141 29.4472C8.96273 29.5481 8.68523 29.6476 8.41079 29.7257L8.41004 29.7259L7.09158 30.1121L7.04953 30.1244C5.21982 30.6605 3.33779 31.2119 1.36159 31.5584L1.36099 31.5585C1.30206 31.5692 1.2398 31.5736 1.17838 31.5736C0.881215 31.5736 0.594439 31.4489 0.38693 31.2204C0.138182 30.9454 0.042822 30.5647 0.133824 30.2012C0.360458 29.2992 0.570984 28.387 0.781872 27.4733C0.799494 27.397 0.817119 27.3206 0.834755 27.2442L0.834794 27.2441C1.36036 24.9503 1.90591 22.5855 2.67163 20.3266L2.67171 20.3265C2.67586 20.3207 2.68696 20.3051 2.69353 20.2825C2.71193 20.2384 2.7363 20.2013 2.76646 20.1554C2.77914 20.136 2.79285 20.1152 2.80757 20.0916C2.8191 20.0739 2.83318 20.0509 2.8457 20.0304C2.8542 20.0164 2.86199 20.0037 2.86775 19.9946C2.88633 19.9655 2.90318 19.9423 2.92193 19.9232L2.85062 19.8531L2.92193 19.9232C2.93084 19.9141 2.93721 19.9054 2.9417 19.8985C2.94484 19.8937 2.94836 19.8877 2.94959 19.8856L2.94994 19.885L2.94999 19.885L2.95122 19.8838C6.61584 16.2985 10.1787 12.5143 13.622 8.85665L13.6221 8.85655C14.7204 7.6869 16.0169 6.36122 17.3143 5.03457L17.2428 4.96465L17.3143 5.03456C18.5898 3.73016 19.8661 2.42259 20.9516 1.27068C20.9584 1.26394 20.9677 1.25747 20.9854 1.24694C20.9875 1.24572 20.9897 1.24438 20.9922 1.24293C21.0083 1.23353 21.0321 1.21956 21.0537 1.20197L21.0538 1.20202L21.0563 1.19979C21.0767 1.18203 21.0945 1.16054 21.106 1.14665C21.108 1.14421 21.1099 1.142 21.1115 1.14009C21.1248 1.12431 21.1325 1.11687 21.1399 1.112L21.1401 1.1122L21.1455 1.10805C21.1455 1.10806 21.1485 1.10613 21.163 1.10148C21.1644 1.10103 21.1661 1.1005 21.1681 1.0999C21.1816 1.09569 21.2069 1.08785 21.2297 1.0754L21.2306 1.07489C21.2909 1.04106 21.352 1.01729 21.4199 0.997238L21.4199 0.997259L21.4219 0.996634C21.494 0.973702 21.5618 0.956798 21.6296 0.950539L21.6305 0.950446C21.6911 0.944285 21.7484 0.948192 21.8177 0.953053C21.8979 0.960068 21.9667 0.968948 22.0335 0.989451C22.0914 1.00844 22.1439 1.03388 22.2078 1.06516C22.2774 1.10063 22.3391 1.13974 22.3983 1.18916L22.3984 1.18928C22.4193 1.20664 22.4425 1.21851 22.4548 1.22478C22.4562 1.22548 22.4574 1.2261 22.4585 1.22666C22.4706 1.23297 22.4734 1.23511 22.4737 1.23535C22.4812 1.24301 22.4879 1.25276 22.4984 1.27047C22.4997 1.27262 22.5011 1.27501 22.5026 1.27759C22.5118 1.29336 22.5252 1.31621 22.5418 1.33735C22.5603 1.36085 22.5823 1.38027 22.5966 1.39282C22.5985 1.39451 22.6003 1.39608 22.6019 1.39752C22.618 1.41188 22.6254 1.41971 22.6304 1.42755L22.6307 1.42809C22.9878 1.98129 23.5931 2.674 24.1766 3.19236C25.92 4.7452 27.5387 6.46317 28.9856 8.29833ZM23.4764 12.2791L23.5498 12.3529L23.6206 12.2766L23.6951 12.1963C24.6963 11.1172 25.6987 10.037 26.6516 9.00465L26.7112 8.94013L26.6549 8.87273C25.4584 7.43945 24.1507 6.08791 22.7578 4.84932C22.3954 4.52352 22.0374 4.15943 21.7097 3.78575L21.6379 3.7039L21.5624 3.78233C20.6948 4.68393 19.7822 5.62394 18.8414 6.58798C18.6948 6.73709 18.5528 6.88383 18.4089 7.0325L18.4021 7.0395L18.3339 7.11001L18.4031 7.17957L23.4764 12.2791Z" fill="#942D30" stroke="#F5F5F5" stroke-width="0.2"/>
</svg>
