<svg width="29" height="29" viewBox="0 0 29 29" fill="none" xmlns="http://www.w3.org/2000/svg">
<path d="M27.493 28.6737C27.2013 28.6737 26.9216 28.5577 26.7153 28.3512C26.5091 28.1447 26.3932 27.8647 26.3932 27.5727V5.55388C26.3932 5.2619 26.5091 4.98187 26.7153 4.7754C26.9216 4.56893 27.2013 4.45294 27.493 4.45294C27.7846 4.45294 28.0643 4.56893 28.2706 4.7754C28.4768 4.98187 28.5927 5.2619 28.5927 5.55388V27.5727C28.5927 27.8647 28.4768 28.1447 28.2706 28.3512C28.0643 28.5577 27.7846 28.6737 27.493 28.6737Z" fill="#942D30"/>
<path d="M27.493 28.6736H9.89748C9.60582 28.6736 9.3261 28.5577 9.11986 28.3512C8.91362 28.1447 8.79776 27.8647 8.79776 27.5727C8.79776 27.2807 8.91362 27.0007 9.11986 26.7942C9.3261 26.5877 9.60582 26.4718 9.89748 26.4718H27.493C27.7846 26.4718 28.0644 26.5877 28.2706 26.7942C28.4768 27.0007 28.5927 27.2807 28.5927 27.5727C28.5927 27.8647 28.4768 28.1447 28.2706 28.3512C28.0644 28.5577 27.7846 28.6736 27.493 28.6736Z" fill="#942D30"/>
<path d="M9.89748 28.6737C9.60581 28.6737 9.3261 28.5577 9.11986 28.3512C8.91362 28.1447 8.79776 27.8647 8.79776 27.5727V5.55388C8.79776 5.2619 8.91362 4.98187 9.11986 4.7754C9.3261 4.56893 9.60581 4.45294 9.89748 4.45294C10.1891 4.45294 10.4689 4.56893 10.6751 4.7754C10.8813 4.98187 10.9972 5.2619 10.9972 5.55388V27.5727C10.9972 27.8647 10.8813 28.1447 10.6751 28.3512C10.4689 28.5577 10.1891 28.6737 9.89748 28.6737Z" fill="#942D30"/>
<path d="M27.493 6.65483H9.89748C9.60582 6.65483 9.3261 6.53884 9.11986 6.33237C8.91362 6.1259 8.79776 5.84588 8.79776 5.55389C8.79776 5.2619 8.91362 4.98187 9.11986 4.7754C9.3261 4.56893 9.60582 4.45294 9.89748 4.45294H27.493C27.7846 4.45294 28.0644 4.56893 28.2706 4.7754C28.4768 4.98187 28.5927 5.2619 28.5927 5.55389C28.5927 5.84588 28.4768 6.1259 28.2706 6.33237C28.0644 6.53884 27.7846 6.65483 27.493 6.65483Z" fill="#942D30"/>
<path d="M1.09972 24.2699C0.808056 24.2699 0.528338 24.1539 0.322101 23.9474C0.115863 23.741 0 23.4609 0 23.1689V1.15012C0 0.858132 0.115863 0.578104 0.322101 0.371637C0.528338 0.165171 0.808056 0.0491791 1.09972 0.0491791C1.39138 0.0491791 1.6711 0.165171 1.87734 0.371637C2.08358 0.578104 2.19944 0.858132 2.19944 1.15012V23.1689C2.19944 23.4609 2.08358 23.741 1.87734 23.9474C1.6711 24.1539 1.39138 24.2699 1.09972 24.2699Z" fill="#942D30"/>
<path d="M18.6952 2.25105H1.09972C0.808056 2.25105 0.528338 2.13506 0.3221 1.9286C0.115863 1.72213 0 1.4421 0 1.15012C0 0.858129 0.115863 0.578102 0.3221 0.371636C0.528338 0.16517 0.808056 0.0491791 1.09972 0.0491791H18.6952C18.9869 0.0491791 19.2666 0.16517 19.4729 0.371636C19.6791 0.578102 19.795 0.858129 19.795 1.15012C19.795 1.4421 19.6791 1.72213 19.4729 1.9286C19.2666 2.13506 18.9869 2.25105 18.6952 2.25105Z" fill="#942D30"/>
<path d="M5.49859 24.2699H1.09972C0.808055 24.2699 0.528337 24.1539 0.3221 23.9474C0.115863 23.741 0 23.4609 0 23.1689C0 22.877 0.115863 22.5969 0.3221 22.3905C0.528337 22.184 0.808055 22.068 1.09972 22.068H5.49859C5.79026 22.068 6.06997 22.184 6.27621 22.3905C6.48245 22.5969 6.59831 22.877 6.59831 23.1689C6.59831 23.4609 6.48245 23.741 6.27621 23.9474C6.06997 24.1539 5.79026 24.2699 5.49859 24.2699Z" fill="#942D30"/>
</svg>
